<svg id="visual" viewBox="0 0 900 600" width="900" height="600" xmlns="http://www.w3.org/2000/svg" xmlns:xlink="http://www.w3.org/1999/xlink" version="1.1"><path d="M0 455L21.5 452.8C43 450.7 86 446.3 128.8 447C171.7 447.7 214.3 453.3 257.2 447.7C300 442 343 425 385.8 423C428.7 421 471.3 434 514.2 436.3C557 438.7 600 430.3 642.8 426.7C685.7 423 728.3 424 771.2 430.5C814 437 857 449 878.5 455L900 461L900 601L878.5 601C857 601 814 601 771.2 601C728.3 601 685.7 601 642.8 601C600 601 557 601 514.2 601C471.3 601 428.7 601 385.8 601C343 601 300 601 257.2 601C214.3 601 171.7 601 128.8 601C86 601 43 601 21.5 601L0 601Z" fill="#ffffff"></path><path d="M0 499L21.5 496.5C43 494 86 489 128.8 489.3C171.7 489.7 214.3 495.3 257.2 487.7C300 480 343 459 385.8 458.2C428.7 457.3 471.3 476.7 514.2 476.7C557 476.7 600 457.3 642.8 456.7C685.7 456 728.3 474 771.2 483C814 492 857 492 878.5 492L900 492L900 601L878.5 601C857 601 814 601 771.2 601C728.3 601 685.7 601 642.8 601C600 601 557 601 514.2 601C471.3 601 428.7 601 385.8 601C343 601 300 601 257.2 601C214.3 601 171.7 601 128.8 601C86 601 43 601 21.5 601L0 601Z" fill="#c1c4ca"></path><path d="M0 482L21.5 489.5C43 497 86 512 128.8 517.7C171.7 523.3 214.3 519.7 257.2 517.3C300 515 343 514 385.8 515.3C428.7 516.7 471.3 520.3 514.2 522.8C557 525.3 600 526.7 642.8 523.5C685.7 520.3 728.3 512.7 771.2 510.8C814 509 857 513 878.5 515L900 517L900 601L878.5 601C857 601 814 601 771.2 601C728.3 601 685.7 601 642.8 601C600 601 557 601 514.2 601C471.3 601 428.7 601 385.8 601C343 601 300 601 257.2 601C214.3 601 171.7 601 128.8 601C86 601 43 601 21.5 601L0 601Z" fill="#878c98"></path><path d="M0 525L21.5 527C43 529 86 533 128.8 535.5C171.7 538 214.3 539 257.2 541.8C300 544.7 343 549.3 385.8 547.2C428.7 545 471.3 536 514.2 531.7C557 527.3 600 527.7 642.8 528.3C685.7 529 728.3 530 771.2 528.7C814 527.3 857 523.7 878.5 521.8L900 520L900 601L878.5 601C857 601 814 601 771.2 601C728.3 601 685.7 601 642.8 601C600 601 557 601 514.2 601C471.3 601 428.7 601 385.8 601C343 601 300 601 257.2 601C214.3 601 171.7 601 128.8 601C86 601 43 601 21.5 601L0 601Z" fill="#505869"></path><path d="M0 562L21.5 561C43 560 86 558 128.8 559.8C171.7 561.7 214.3 567.3 257.2 569.5C300 571.7 343 570.3 385.8 569.3C428.7 568.3 471.3 567.7 514.2 565.5C557 563.3 600 559.7 642.8 558.7C685.7 557.7 728.3 559.3 771.2 561.7C814 564 857 567 878.5 568.5L900 570L900 601L878.5 601C857 601 814 601 771.2 601C728.3 601 685.7 601 642.8 601C600 601 557 601 514.2 601C471.3 601 428.7 601 385.8 601C343 601 300 601 257.2 601C214.3 601 171.7 601 128.8 601C86 601 43 601 21.5 601L0 601Z" fill="#1c293d"></path></svg>